<svg width="34" height="34" viewBox="0 0 34 34" fill="none" xmlns="http://www.w3.org/2000/svg">
<path d="M22.625 12.5H4.625C2.76104 12.5 1.25 14.011 1.25 15.875V23.75C1.25 25.614 2.76104 27.125 4.625 27.125H22.625C24.489 27.125 26 25.614 26 23.75V15.875C26 14.011 24.489 12.5 22.625 12.5Z" fill="#FF3D00"/>
<path d="M32.75 24.875L26 21.5V18.125L32.75 14.75V24.875Z" fill="#FF3D00"/>
<path d="M19.25 10.25C21.7353 10.25 23.75 8.23528 23.75 5.75C23.75 3.26472 21.7353 1.25 19.25 1.25C16.7647 1.25 14.75 3.26472 14.75 5.75C14.75 8.23528 16.7647 10.25 19.25 10.25Z" fill="#FF3D00"/>
<path d="M8 10.25C9.86396 10.25 11.375 8.73896 11.375 6.875C11.375 5.01104 9.86396 3.5 8 3.5C6.13604 3.5 4.625 5.01104 4.625 6.875C4.625 8.73896 6.13604 10.25 8 10.25Z" fill="#FF3D00"/>
<path d="M33.0459 14.2719C32.9643 14.2216 32.8712 14.1929 32.7754 14.1886C32.6797 14.1843 32.5844 14.2044 32.4986 14.2471L26.5625 17.2149V15.875C26.5613 14.8311 26.1461 13.8303 25.4079 13.0921C24.6698 12.3539 23.6689 11.9387 22.625 11.9375H4.625C3.58108 11.9387 2.58025 12.3539 1.84208 13.0921C1.10392 13.8303 0.688691 14.8311 0.6875 15.875V23.75C0.688691 24.7939 1.10392 25.7948 1.84208 26.5329C2.58025 27.2711 3.58108 27.6863 4.625 27.6875H12.2671L7.60231 32.3523C7.49985 32.4584 7.44315 32.6005 7.44443 32.748C7.44572 32.8955 7.50487 33.0365 7.60916 33.1408C7.71346 33.2451 7.85454 33.3043 8.00202 33.3056C8.14951 33.3069 8.2916 33.2502 8.39769 33.1477L13.625 27.9204L18.8523 33.1477C18.9584 33.2502 19.1005 33.3069 19.248 33.3056C19.3955 33.3043 19.5365 33.2451 19.6408 33.1408C19.7451 33.0365 19.8043 32.8955 19.8056 32.748C19.8068 32.6005 19.7502 32.4584 19.6477 32.3523L14.9829 27.6875H22.625C23.6689 27.6863 24.6698 27.2711 25.4079 26.5329C26.1461 25.7948 26.5613 24.7939 26.5625 23.75V22.4101L32.4986 25.3784C32.5843 25.4213 32.6797 25.4415 32.7754 25.4372C32.8712 25.4328 32.9643 25.4041 33.0459 25.3537C33.1274 25.3032 33.1948 25.2328 33.2414 25.149C33.2881 25.0652 33.3125 24.9709 33.3125 24.875V14.75C33.3125 14.6542 33.2879 14.56 33.2413 14.4763C33.1946 14.3926 33.1274 14.3223 33.0459 14.2719ZM25.4375 23.75C25.4366 24.4956 25.14 25.2105 24.6128 25.7378C24.0855 26.265 23.3706 26.5616 22.625 26.5625H4.625C3.87935 26.5616 3.1645 26.265 2.63725 25.7378C2.11 25.2105 1.81339 24.4956 1.8125 23.75V15.875C1.81339 15.1294 2.11 14.4145 2.63725 13.8872C3.1645 13.36 3.87935 13.0634 4.625 13.0625H22.625C23.3706 13.0634 24.0855 13.36 24.6128 13.8872C25.14 14.4145 25.4366 15.1294 25.4375 15.875V23.75ZM32.1875 23.9649L26.5625 21.1524V18.4726L32.1875 15.6601V23.9649ZM19.25 10.8125C20.2513 10.8125 21.2301 10.5156 22.0626 9.95932C22.8951 9.40304 23.544 8.61239 23.9271 7.68734C24.3103 6.76229 24.4106 5.74439 24.2152 4.76236C24.0199 3.78033 23.5377 2.87828 22.8297 2.17027C22.1217 1.46227 21.2197 0.980114 20.2376 0.784777C19.2556 0.589439 18.2377 0.689693 17.3127 1.07286C16.3876 1.45603 15.597 2.1049 15.0407 2.93743C14.4844 3.76995 14.1875 4.74873 14.1875 5.75C14.189 7.0922 14.7228 8.37901 15.6719 9.32809C16.621 10.2772 17.9078 10.811 19.25 10.8125ZM19.25 1.8125C20.0288 1.8125 20.79 2.04343 21.4376 2.47609C22.0851 2.90875 22.5898 3.5237 22.8878 4.24319C23.1858 4.96267 23.2638 5.75437 23.1118 6.51817C22.9599 7.28197 22.5849 7.98357 22.0342 8.53424C21.4836 9.0849 20.782 9.45992 20.0182 9.61185C19.2544 9.76377 18.4627 9.6858 17.7432 9.38778C17.0237 9.08976 16.4087 8.58508 15.9761 7.93756C15.5434 7.29004 15.3125 6.52877 15.3125 5.75C15.3137 4.70608 15.7289 3.70525 16.4671 2.96709C17.2052 2.22892 18.2061 1.81369 19.25 1.8125ZM8 10.8125C8.77876 10.8125 9.54004 10.5816 10.1876 10.1489C10.8351 9.71626 11.3398 9.1013 11.6378 8.38182C11.9358 7.66233 12.0138 6.87063 11.8618 6.10683C11.7099 5.34303 11.3349 4.64144 10.7842 4.09077C10.2336 3.5401 9.53197 3.16509 8.76817 3.01316C8.00437 2.86123 7.21267 2.93921 6.49318 3.23723C5.7737 3.53525 5.15875 4.03993 4.72609 4.68744C4.29343 5.33496 4.0625 6.09624 4.0625 6.875C4.06369 7.91893 4.47892 8.91975 5.21708 9.65792C5.95525 10.3961 6.95608 10.8113 8 10.8125ZM8 4.0625C8.55626 4.0625 9.10003 4.22745 9.56254 4.53649C10.0251 4.84554 10.3855 5.28479 10.5984 5.79871C10.8113 6.31262 10.867 6.87812 10.7585 7.42369C10.6499 7.96926 10.3821 8.4704 9.98874 8.86374C9.5954 9.25708 9.09426 9.52494 8.54869 9.63346C8.00312 9.74198 7.43762 9.68629 6.9237 9.47341C6.40979 9.26054 5.97053 8.90006 5.66149 8.43754C5.35245 7.97503 5.1875 7.43126 5.1875 6.875C5.18839 6.12936 5.485 5.4145 6.01225 4.88725C6.5395 4.36 7.25435 4.0634 8 4.0625Z" fill="white"/>
</svg>
